<svg width="260" height="75" viewBox="0 0 260 75" fill="none" xmlns="http://www.w3.org/2000/svg">
<path d="M0.12 27.352C0.0773336 27.0533 0.0560002 26.5627 0.0560002 25.88C0.0560002 24.216 0.226667 22.5947 0.568 21.016C0.909334 19.4373 1.4 17.7093 2.04 15.832C2.68 14.0827 3.896 12.3333 5.688 10.584C7.48 8.83467 9.48533 7.40533 11.704 6.296C13.9227 5.144 15.928 4.568 17.72 4.568C19.5547 4.568 21.3467 5.25066 23.096 6.616C24.8453 7.93866 25.9547 9.45333 26.424 11.16C26.5093 11.672 26.552 12.0133 26.552 12.184C26.552 12.824 26.36 13.3147 25.976 13.656C25.6347 13.9547 25.1653 14.104 24.568 14.104C24.0987 14.104 23.736 14.0827 23.48 14.04C23.352 14.04 23.16 13.9547 22.904 13.784C21.6667 13.1013 20.472 12.76 19.32 12.76C17.144 12.76 14.9893 13.8907 12.856 16.152C9.22933 19.9493 7.416 24.472 7.416 29.72C7.416 31.5973 7.608 33.4107 7.992 35.16C8.41867 37.1227 9.16533 38.5733 10.232 39.512C11.3413 40.408 12.8133 40.856 14.648 40.856C15.288 40.856 15.992 40.792 16.76 40.664C19.448 40.3227 21.9227 39.512 24.184 38.232C26.4453 36.9093 28.9413 35.16 31.672 32.984C32.312 32.472 33.4427 31.4053 35.064 29.784L36.344 28.44C36.8987 27.8853 37.368 27.5013 37.752 27.288C38.1787 27.032 38.5627 26.904 38.904 26.904C39.4587 26.904 40.1413 27.1813 40.952 27.736C41.848 28.376 42.296 29.1867 42.296 30.168C42.296 30.8507 42.0613 31.4907 41.592 32.088C41.4213 32.3867 40.952 33.0907 40.184 34.2C39.416 35.2667 38.6693 36.2267 37.944 37.08C37.2187 37.9333 36.4933 38.6587 35.768 39.256C31.8427 42.712 27.7467 45.0373 23.48 46.232C21.6027 46.744 19.7253 47 17.848 47C14.392 47 11.32 46.1253 8.632 44.376C5.98667 42.6267 3.91733 40.344 2.424 37.528C0.930667 34.6693 0.162667 31.704 0.12 28.632V27.352ZM66.2825 43.736C65.8985 43.5653 65.5145 43.48 65.1305 43.48C64.7465 43.48 64.4052 43.5867 64.1065 43.8C63.8505 43.9707 63.5518 44.248 63.2105 44.632C62.6985 45.144 62.1652 45.5707 61.6105 45.912C61.0985 46.2107 60.1598 46.488 58.7945 46.744C58.1972 46.8293 57.7065 46.872 57.3225 46.872C55.5305 46.872 53.6532 46.488 51.6905 45.72C49.7705 44.9093 48.4052 43.9493 47.5945 42.84C46.7412 41.6453 46.3358 40.3653 46.3785 39C46.4212 36.952 47.2745 34.904 48.9385 32.856C50.5598 30.8933 52.0318 29.5067 53.3545 28.696C54.7198 27.8853 56.5758 27.3733 58.9225 27.16C59.4345 27.16 60.1598 27.0747 61.0985 26.904C62.0798 26.7333 62.5705 26.4987 62.5705 26.2C62.5705 25.6027 62.2932 25.0693 61.7385 24.6C61.2265 24.088 60.1598 23.832 58.5385 23.832C57.9412 23.832 57.0452 23.8747 55.8505 23.96C54.6558 24.0453 53.8238 24.088 53.3545 24.088C51.9038 24.088 50.8585 23.8533 50.2185 23.384C50.0478 23.2987 49.9625 22.8933 49.9625 22.168C49.9625 20.888 50.4105 20.0773 51.3065 19.736C53.1412 19.0533 55.0398 18.6907 57.0025 18.648C59.4772 18.648 61.7598 19.2027 63.8505 20.312C65.9838 21.3787 67.5412 22.7227 68.5225 24.344C69.5038 25.9653 70.1438 28.2053 70.4425 31.064C70.7838 34.264 70.9545 38.3387 70.9545 43.288C70.9545 44.6533 70.7625 45.4427 70.3785 45.656C70.0372 45.8693 69.7172 45.976 69.4185 45.976C69.0345 45.976 68.6718 45.8693 68.3305 45.656C68.0318 45.4 67.6905 45.0587 67.3065 44.632C66.9225 44.1627 66.5812 43.864 66.2825 43.736ZM56.1705 42.968C58.1758 42.3707 60.1385 41.4107 62.0585 40.088C62.4852 39.7893 62.8692 39.4053 63.2105 38.936C63.5518 38.4667 63.7652 38.168 63.8505 38.04C63.9358 37.912 63.9998 37.5493 64.0425 36.952C64.1278 36.312 64.1492 35.8 64.1065 35.416C64.0638 35.288 63.9785 34.9467 63.8505 34.392C63.7652 33.8373 63.6158 33.3467 63.4025 32.92C63.1892 32.5787 62.8478 32.2587 62.3785 31.96C61.9092 31.6613 61.4825 31.5333 61.0985 31.576C60.2878 31.6187 59.4132 31.9173 58.4745 32.472C57.5358 33.0267 56.6612 33.7733 55.8505 34.712C55.0398 35.6933 54.3998 36.696 53.9305 37.72C53.5038 38.7013 53.2905 39.6187 53.2905 40.472C53.3758 41.624 53.6958 42.392 54.2505 42.776C54.5492 42.9893 54.9118 43.096 55.3385 43.096C55.6798 43.096 55.9572 43.0533 56.1705 42.968ZM90.8185 39.448C90.3065 41.5387 89.4532 43.16 88.2585 44.312C87.0638 45.464 85.6558 46.04 84.0345 46.04C81.9438 46.04 79.8532 45.144 77.7625 43.352C79.3838 42.4987 80.4078 41.9867 80.8345 41.816C81.9438 41.304 82.8185 40.6 83.4585 39.704C84.1412 38.808 84.4825 37.8053 84.4825 36.696C84.4825 36.312 84.4612 36.0133 84.4185 35.8C84.2905 34.8613 84.0772 33.8587 83.7785 32.792C83.4798 31.6827 83.2878 30.9573 83.2025 30.616C82.9892 29.8907 82.7118 28.8027 82.3705 27.352C82.1145 26.2853 81.8798 25.1973 81.6665 24.088C81.4532 22.9787 81.3465 21.9973 81.3465 21.144C81.3465 19.736 81.6452 18.456 82.2425 17.304C82.8825 16.1093 83.9492 14.9787 85.4425 13.912C86.0825 13.4427 86.8078 13.0373 87.6185 12.696C88.4718 12.3547 89.2825 12.1627 90.0505 12.12C90.6052 12.0347 91.2238 12.1413 91.9065 12.44C92.6318 12.7387 93.0798 13.1013 93.2505 13.528C93.4212 13.912 93.3572 14.4667 93.0585 15.192C92.7598 15.8747 92.3972 16.3867 91.9705 16.728C89.4958 18.5627 88.3438 20.6107 88.5145 22.872C88.5998 24.152 88.9412 26.0293 89.5385 28.504C89.9652 30.0827 90.2638 31.448 90.4345 32.6C90.4772 32.9413 90.5838 33.624 90.7545 34.648C90.9678 35.672 91.0745 36.6107 91.0745 37.464C91.0745 38.232 90.9892 38.8933 90.8185 39.448ZM107.636 22.04C108.02 21.9973 108.34 21.9973 108.596 22.04C108.852 22.04 109.087 22.04 109.3 22.04C109.599 21.9973 110.047 21.976 110.644 21.976C113.545 21.976 116.404 22.808 119.22 24.472C120.457 25.24 121.076 26.0507 121.076 26.904C121.076 27.8427 120.436 28.6747 119.156 29.4C118.089 30.04 116.98 30.7867 115.828 31.64C113.78 33.0053 112.031 34.072 110.58 34.84C109.172 35.608 107.615 36.1413 105.908 36.44C105.652 36.5253 105.375 36.76 105.076 37.144C104.82 37.4853 104.713 37.7413 104.756 37.912C104.841 38.168 104.991 38.7013 105.204 39.512C105.417 40.28 105.652 40.9413 105.908 41.496C106.207 42.008 106.548 42.4347 106.932 42.776C107.359 43.1173 107.999 43.288 108.852 43.288C109.705 43.288 110.495 43.16 111.22 42.904C113.78 41.7093 116.212 40.216 118.516 38.424C119.199 37.9547 119.796 37.72 120.308 37.72C120.948 37.72 121.631 38.0613 122.356 38.744C122.868 39.2133 123.124 39.704 123.124 40.216C123.124 40.7707 122.719 41.4533 121.908 42.264C118.281 45.8053 114.42 47.576 110.324 47.576C109.215 47.576 107.849 47.3627 106.228 46.936C103.497 46.2533 101.407 44.7387 99.956 42.392C98.5053 40.0453 97.78 37.3573 97.78 34.328C97.78 33.3893 97.844 32.4933 97.972 31.64C98.0147 31.3413 98.1 30.7227 98.228 29.784C98.3987 28.8027 98.6547 27.992 98.996 27.352C100.617 24.152 103.497 22.3813 107.636 22.04ZM111.348 26.648C110.58 26.392 109.897 26.264 109.3 26.264C108.319 26.264 107.551 26.5627 106.996 27.16C106.441 27.7573 105.993 28.6533 105.652 29.848C106.676 29.976 107.764 29.72 108.916 29.08C110.111 28.3973 110.921 27.5867 111.348 26.648ZM155.095 43.672C156.247 43.4587 158.636 42.968 162.263 42.2L167.191 41.176C167.746 41.7307 168.215 42.2213 168.599 42.648C168.983 43.0747 169.175 43.4373 169.175 43.736C169.175 44.0773 169.004 44.4187 168.663 44.76C168.322 45.1013 167.639 45.656 166.615 46.424C166.487 46.5093 166.338 46.6587 166.167 46.872C166.039 47.0853 165.89 47.2133 165.719 47.256L163.991 47.704C162.54 48.1307 161.239 48.4507 160.087 48.664C158.978 48.92 157.847 49.048 156.695 49.048C152.599 49.048 149.25 47.832 146.647 45.4C145.666 44.504 144.898 43.608 144.343 42.712C143.831 41.7733 143.575 40.7707 143.575 39.704C143.575 39.2347 143.596 38.8933 143.639 38.68C144.322 34.456 145.09 30.872 145.943 27.928C146.839 24.6853 148.46 19.1813 150.807 11.416C151.319 9.58133 152.13 6.82933 153.239 3.16C153.538 2.17867 153.943 1.496 154.455 1.112C155.01 0.727999 155.799 0.578665 156.823 0.663998C157.036 0.663998 157.228 0.685331 157.399 0.727997C157.612 0.770663 157.826 0.791996 158.039 0.791996C160.684 1.00533 162.007 2.28533 162.007 4.632C162.007 5.22933 161.922 5.848 161.751 6.488C161.41 7.85333 160.77 9.688 159.831 11.992C156.375 20.7813 153.708 29.2507 151.831 37.4C151.575 38.424 151.447 39.4907 151.447 40.6C151.447 42.6907 152.364 43.736 154.199 43.736C154.583 43.736 154.882 43.7147 155.095 43.672ZM188.966 42.712C187.643 43.5227 186.129 43.928 184.422 43.928C182.545 43.928 180.731 43.4587 178.982 42.52C177.275 41.5387 175.91 40.152 174.886 38.36C173.862 36.568 173.435 34.52 173.606 32.216L173.926 30.68C174.182 29.144 174.395 28.0133 174.566 27.288C174.95 25.7093 175.718 24.6 176.87 23.96C178.022 23.32 179.558 22.808 181.478 22.424C182.715 22.168 183.931 22.04 185.126 22.04C188.881 22.04 192.038 23.2987 194.598 25.816C195.963 27.1813 196.646 28.8453 196.646 30.808C196.646 32.728 195.942 34.7973 194.534 37.016C192.913 39.5333 191.057 41.432 188.966 42.712ZM183.59 25.304C182.907 26.968 182.182 29.0373 181.414 31.512L180.774 33.432L181.222 33.624C181.222 33.9227 181.222 34.392 181.222 35.032C181.265 35.6293 181.35 36.1413 181.478 36.568C181.947 37.8907 182.481 38.7013 183.078 39C183.334 39.128 183.697 39.064 184.166 38.808C184.678 38.552 185.126 38.2533 185.51 37.912C186.107 37.4 187.067 36.3333 188.39 34.712C189.371 33.6027 189.862 32.28 189.862 30.744C189.862 29.4213 189.478 28.2267 188.71 27.16C187.985 26.0933 186.961 25.368 185.638 24.984C185.51 24.9413 185.275 24.92 184.934 24.92C184.123 24.92 183.675 25.048 183.59 25.304ZM224.166 71.96C223.355 72.8133 222.31 73.4533 221.03 73.88C219.792 74.3493 218.47 74.584 217.062 74.584C215.312 74.584 213.691 74.2427 212.198 73.56C210.704 72.92 209.616 71.9813 208.934 70.744H214.118C215.398 70.744 216.614 70.3387 217.766 69.528C218.96 68.76 219.707 67.7787 220.006 66.584C220.987 63.256 221.478 59.7787 221.478 56.152C221.478 52.8667 221.072 49.624 220.262 46.424C220.219 46.3813 220.027 46.2107 219.686 45.912C218.107 46.7653 216.379 47.192 214.502 47.192C213.051 47.192 211.28 46.8933 209.19 46.296C206.886 45.6133 205.051 44.4187 203.686 42.712C202.32 41.0053 201.638 39.1067 201.638 37.016C201.638 34.584 202.576 32.3013 204.454 30.168C207.526 26.7547 211.302 25.048 215.782 25.048C218.811 25.048 221.798 25.816 224.742 27.352C225.296 27.6507 225.744 28.2693 226.086 29.208C226.47 30.1467 226.704 31.064 226.79 31.96C226.875 33.0693 226.832 34.7333 226.662 36.952C226.662 37.336 226.619 38.0187 226.534 39C226.491 39.9387 226.491 40.792 226.534 41.56C226.662 44.632 226.854 47.6613 227.11 50.648C227.195 51.8427 227.28 53.3147 227.366 55.064C227.494 56.8133 227.6 58.8613 227.686 61.208C227.771 65.7733 226.598 69.3573 224.166 71.96ZM215.59 41.752C216.912 39.96 217.894 38.4453 218.534 37.208C219.174 35.9707 219.494 34.5627 219.494 32.984C219.494 31.9173 219.238 31.064 218.726 30.424C218.256 29.7413 217.638 29.4 216.87 29.4C216.358 29.4 215.803 29.5707 215.206 29.912C212.859 31.2773 210.704 33.1547 208.742 35.544C208.272 36.1413 208.038 36.952 208.038 37.976C208.038 38.8293 208.208 39.6827 208.55 40.536C208.891 41.3467 209.318 41.9227 209.83 42.264C210.342 42.648 211.152 42.84 212.262 42.84C212.944 42.84 213.584 42.7547 214.182 42.584C214.822 42.3707 215.291 42.0933 215.59 41.752ZM257.179 25.304C257.563 26.072 257.904 26.9467 258.203 27.928C258.544 28.8667 258.779 29.4853 258.907 29.784L259.483 31.448C258.971 33.88 258.459 35.8853 257.947 37.464C257.435 39 256.688 40.4507 255.707 41.816C254.726 43.1387 253.382 44.2267 251.675 45.08C250.096 45.8907 248.411 46.296 246.619 46.296C244.656 46.296 242.758 45.848 240.923 44.952C239.131 44.056 237.616 42.8187 236.379 41.24C235.142 39.6187 234.416 37.8053 234.203 35.8C234.118 34.776 234.075 33.9867 234.075 33.432C234.075 31.9387 234.288 30.5733 234.715 29.336C235.184 28.0987 235.995 26.968 237.147 25.944C237.488 25.6453 237.872 25.0693 238.299 24.216C238.683 23.448 239.046 22.872 239.387 22.488C241.179 20.568 243.312 19.608 245.787 19.608C247.024 19.608 248.475 19.8853 250.139 20.44C250.352 20.5253 251.056 20.7813 252.251 21.208C253.488 21.6347 254.512 22.1893 255.323 22.872C256.134 23.5547 256.752 24.3653 257.179 25.304ZM246.043 23.192C244.464 24.472 243.334 26.008 242.651 27.8C242.011 29.5493 241.435 31.9173 240.923 34.904C241.008 35.2453 241.2 35.9707 241.499 37.08C241.798 38.1893 242.16 39.2133 242.587 40.152C243.056 41.304 243.888 41.88 245.083 41.88C245.296 41.88 245.702 41.8373 246.299 41.752C247.622 41.496 248.774 40.7493 249.755 39.512C250.779 38.232 251.568 36.7387 252.123 35.032C252.678 33.3253 252.955 31.7467 252.955 30.296C252.955 27.4373 251.782 25.0267 249.435 23.064C248.838 22.5947 248.304 22.36 247.835 22.36C247.323 22.36 246.726 22.6373 246.043 23.192Z" fill="black"/>
</svg>
